<?xml version="1.0" encoding="utf-8"?>
<!-- Generator: Adobe Illustrator 24.0.3, SVG Export Plug-In . SVG Version: 6.00 Build 0)  -->
<svg version="1.1" id="Layer_1" xmlns="http://www.w3.org/2000/svg" xmlns:xlink="http://www.w3.org/1999/xlink" x="0px" y="0px"
	 viewBox="0 0 260.8 192.8" style="enable-background:new 0 0 260.8 192.8;" xml:space="preserve">
<style type="text/css">
	.st0{fill:#FFFFFF;}
	.st1{fill:#27AAE1;}
	.st2{fill:#1B75BC;}
	.st3{fill:#009444;}
	.st4{fill:#006838;}
	.st5{fill:none;}
</style>
<circle class="st0" cx="179.3" cy="39.6" r="32.1"/>
<path d="M96.8,63.2h-1.4c-1.1,4.5-3.1,8-6,10.4c-2.9,2.4-6.3,3.6-10,3.6c-3.1,0-6-0.9-8.6-2.7c-2.6-1.8-4.5-4.1-5.7-7
	c-1.5-3.7-2.3-7.8-2.3-12.4c0-4.5,0.8-8.7,2.3-12.4c1.2-2.9,3.1-5.2,5.7-7c2.6-1.8,5.5-2.7,8.6-2.7c3.7,0,7.1,1.2,10,3.6
	c2.9,2.4,5,5.9,6,10.4h1.4V29.6h-1.4c-0.2,1.3-0.5,2.2-1.1,2.7c-0.6,0.6-1.3,0.9-2,0.9c-0.6,0-2.1-0.4-4.3-1.3
	c-3.9-1.5-7.6-2.3-11.1-2.3c-4.8,0-9.3,1.2-13.5,3.5s-7.6,5.7-10.1,10c-2.2,3.8-3.6,7.3-3.7,11.9c0.1,5.5,1.5,8.2,3.7,11.9
	c2.5,4.3,5.9,7.6,10.1,10c4.2,2.4,8.7,3.5,13.5,3.5c3.5,0,7.2-0.8,11.1-2.3c2.3-0.9,3.7-1.3,4.3-1.3c0.8,0,1.5,0.3,2,0.9
	c0.6,0.6,1,2,1.1,3.2h1.4V63.2z M116.4,129.6h12.7v-1.4c-2.3,0-3.8-0.2-4.7-0.6c-0.8-0.4-1.4-1-1.8-1.7c-0.3-0.7-0.5-2.4-0.5-5.1
	v-14h3.3l9.9,14l6.2,8.8h15.7v-1.4c-1.3-0.1-2.5-0.5-3.5-1.3c-0.7-0.5-1.8-1.9-3.4-4.1l-1.5-2.1L138.4,106c3-0.8,5.4-1.9,7.1-3.4
	c2.7-2.4,4-5.5,4-9.1c0-3-0.9-5.7-2.7-7.9c-1.8-2.2-4.1-3.8-6.9-4.6c-2.8-0.8-7.2-1.3-13.3-1.3h-4.6V38.2c0-2.6,0.1-4.2,0.4-4.8
	c0.3-0.6,0.8-1.2,1.6-1.7c0.8-0.5,1.9-0.7,3.3-0.7h1.7v-1.4h-25.7V31h1.7c1.4,0,2.5,0.2,3.3,0.7c0.8,0.5,1.4,1,1.6,1.7
	c0.3,0.6,0.4,2.2,0.4,4.8v41.4h-7V81h1.7c1.4,0,2.5,0.2,3.3,0.7c0.8,0.5,1.4,1,1.6,1.7c0.3,0.6,0.4,2.2,0.4,4.6V121
	c0,2.6-0.1,4.2-0.4,4.8c-0.3,0.6-0.8,1.2-1.6,1.7c-0.8,0.5-1.9,0.7-3.3,0.7h-1.7v1.4L116.4,129.6L116.4,129.6z M122.2,82.3h3.9
	c4,0,6.8,0.9,8.6,2.7c1.8,1.8,2.7,4.6,2.7,8.4c0,2.6-0.5,4.8-1.5,6.4c-1,1.6-2.3,2.8-4,3.4c-1.7,0.6-4.3,0.9-7.7,0.9h-2.1V82.3z
	 M164,79.6V81h1.7c1.4,0,2.5,0.2,3.3,0.7c0.8,0.5,1.4,1,1.6,1.7c0.3,0.6,0.4,2.2,0.4,4.8V121c0,2.5-0.1,4.1-0.4,4.6
	c-0.3,0.8-0.8,1.4-1.5,1.8c-0.9,0.5-2.1,0.8-3.5,0.8H164v1.4h26.1v-1.4h-1.7c-1.4,0-2.5-0.2-3.3-0.7c-0.8-0.5-1.4-1-1.7-1.7
	c-0.3-0.6-0.4-2.2-0.4-4.8v-15.3h1.4c2.6,0,10.6,0.8,12.6,2.3c2.1,1.5,3.3,4.6,3.8,9.4h1.3V92.3H201c-0.3,2.7-0.9,4.8-1.9,6.4
	c-1,1.6-2.2,2.7-3.6,3.4c-1.4,0.7-8.8,1-11,1h-1.4V82.5h9.8c4,0,6.7,0.2,8.2,0.6c2.7,0.7,4.7,1.8,6.1,3.4c1.4,1.6,2.3,4.1,2.6,7.5
	h1.5V79.6H164z M105.8,147.3h-0.6c-0.5,0-0.8-0.3-0.8-0.8v-3.8h1.4v-1.1h-1.4v-2.2H103v2.2h-0.8v1.1h0.8v3.9c0,0.6,0.2,1,0.5,1.4
	c0.4,0.4,0.8,0.6,1.5,0.6h0.9V147.3z M102,165.3h1.4v-7.1H102V165.3z M102.7,155c-0.3,0-0.5,0.1-0.7,0.3c-0.2,0.2-0.3,0.4-0.3,0.7
	s0.1,0.5,0.3,0.7c0.2,0.2,0.4,0.3,0.7,0.3s0.5-0.1,0.7-0.3c0.2-0.2,0.3-0.4,0.3-0.7s-0.1-0.5-0.3-0.7
	C103.1,155.1,102.9,155,102.7,155 M93,165.3h1.4v-7.1H93V165.3z M89.4,141.4c-0.9,0-1.6,0.3-2.1,0.9c-0.6,0.6-0.8,1.5-0.8,2.8
	c0,1.3,0.3,2.2,0.8,2.8c0.6,0.6,1.3,0.9,2.1,0.9c0.9,0,1.6-0.3,2.1-0.9c0.6-0.6,0.8-1.5,0.8-2.8c0-1.3-0.3-2.2-0.8-2.8
	C91,141.7,90.3,141.4,89.4,141.4 M90.4,146.9c-0.3,0.3-0.6,0.4-1.1,0.4c-0.4,0-0.8-0.1-1-0.4c-0.3-0.3-0.5-1-0.5-1.9
	c0-1,0.2-1.6,0.5-1.9c0.3-0.3,0.6-0.4,1-0.4c0.4,0,0.8,0.1,1.1,0.4c0.3,0.3,0.5,1,0.5,1.9C90.9,146,90.8,146.6,90.4,146.9
	 M97.7,155.9c-0.3,0.4-0.5,0.8-0.5,1.4v1.1h-0.8v1.1h0.8v5.9h1.4v-5.9h1.4v-1.1h-1.4v-1c0-0.6,0.3-0.8,0.8-0.8h0.6v-1.2h-0.9
	C98.6,155.3,98.1,155.5,97.7,155.9 M93.7,155c-0.3,0-0.5,0.1-0.7,0.3c-0.2,0.2-0.3,0.4-0.3,0.7s0.1,0.5,0.3,0.7
	c0.2,0.2,0.4,0.3,0.7,0.3c0.3,0,0.5-0.1,0.7-0.3c0.2-0.2,0.3-0.4,0.3-0.7s-0.1-0.5-0.3-0.7C94.2,155.1,93.9,155,93.7,155 M57.1,160
	c0.4-0.5,0.6-1,0.6-1.7c0-0.9-0.3-1.6-0.8-2.1c-0.6-0.5-1.3-0.8-2.2-0.8h-3.9v10h1.5v-4.2h1.9l2.1,4.2H58l-2.3-4.4
	C56.3,160.8,56.8,160.5,57.1,160 M52.2,159.9v-3.1h2.2c0.5,0,0.9,0.1,1.2,0.4c0.3,0.3,0.5,0.7,0.5,1.2c0,0.5-0.2,0.9-0.5,1.1
	c-0.3,0.3-0.7,0.4-1.2,0.4H52.2z M60.1,165.3h1.4v-7.1h-1.4V165.3z M60.8,155c-0.3,0-0.5,0.1-0.7,0.3c-0.2,0.2-0.3,0.4-0.3,0.7
	s0.1,0.5,0.3,0.7c0.2,0.2,0.4,0.3,0.7,0.3s0.5-0.1,0.7-0.3c0.2-0.2,0.3-0.4,0.3-0.7s-0.1-0.5-0.3-0.7C61.3,155.1,61,155,60.8,155
	 M63.5,146.7c-0.5,0.5-1.1,0.7-1.7,0.7c-0.6,0-1-0.2-1.3-0.5c-0.3-0.4-0.5-0.8-0.5-1.5h4.6v-0.6c0-1-0.3-1.8-0.8-2.5
	c-0.6-0.6-1.3-1-2.2-1c-0.9,0-1.7,0.3-2.2,1c-0.5,0.6-0.8,1.5-0.8,2.7c0,2.4,1.1,3.6,3.2,3.6c0.6,0,1.1-0.1,1.5-0.3
	c0.4-0.2,0.8-0.4,1.1-0.8L63.5,146.7z M60.2,143.5c0.3-0.6,0.7-0.9,1.4-0.9c0.7,0,1.1,0.3,1.4,0.9c0.1,0.3,0.2,0.6,0.2,1H60
	C60,144,60.1,143.7,60.2,143.5 M54,148.6c1.1,0,2-0.4,2.8-1.2l-1-1c-0.6,0.6-1.2,0.8-1.8,0.8c-0.6,0-1.1-0.2-1.5-0.6
	c-0.3-0.3-0.5-0.8-0.5-1.5c0-0.2,0-0.8,0-1.6c0-0.9,0-1.4,0-1.6c0.1-0.7,0.2-1.2,0.5-1.5c0.4-0.4,0.9-0.6,1.5-0.6
	c0.6,0,1.2,0.3,1.8,0.8l1-1c-0.8-0.8-1.7-1.2-2.8-1.2c-1,0-1.9,0.4-2.6,1.1c-0.4,0.4-0.7,1-0.9,1.7c-0.1,0.4-0.1,1.2-0.1,2.3
	c0,1.2,0,1.9,0.1,2.4c0.1,0.7,0.4,1.2,0.9,1.6C52,148.3,52.9,148.6,54,148.6 M100,138.6h-1.5v10h1.5V138.6z M72.6,148.6V144
	c0-0.9-0.2-1.5-0.7-2c-0.4-0.4-1-0.6-1.7-0.6c-0.8,0-1.4,0.3-1.9,0.8v-0.7h-1.4v7.1h1.4v-4.3c0-0.5,0.1-0.9,0.4-1.2
	c0.3-0.3,0.6-0.4,1-0.4c0.4,0,0.8,0.1,1,0.4c0.3,0.3,0.4,0.7,0.4,1.2v4.3H72.6z M76.7,139.4h-1.4v2.2h-0.8v1.1h0.8v3.9
	c0,0.6,0.2,1,0.5,1.4c0.4,0.4,0.8,0.6,1.5,0.6h0.9v-1.2h-0.6c-0.5,0-0.8-0.3-0.8-0.8v-3.8h1.4v-1.1h-1.4V139.4z M82.8,158.2
	c-0.6,0-1.1,0.1-1.5,0.2c-0.4,0.2-0.8,0.4-1.1,0.8l0.9,0.9c0.4-0.5,0.9-0.7,1.6-0.7c1,0,1.6,0.4,1.6,1.3v0.5h-1.9
	c-0.8,0-1.4,0.2-1.8,0.6c-0.4,0.4-0.6,0.9-0.6,1.5c0,0.6,0.2,1.1,0.6,1.5c0.4,0.4,1,0.6,1.9,0.6c0.8,0,1.4-0.2,1.9-0.7v0.6h1.4v-4.7
	C85.7,159,84.8,158.2,82.8,158.2 M84.3,162.8c0,0.5-0.1,0.9-0.3,1.1c-0.3,0.3-0.7,0.4-1.3,0.4c-0.9,0-1.3-0.3-1.3-1
	c0-0.7,0.4-1,1.3-1h1.7V162.8z M68.2,159c-0.5-0.6-1.1-0.8-1.9-0.8c-0.7,0-1.3,0.2-1.7,0.6c-0.5,0.5-0.8,1.5-0.8,3
	c0,1.5,0.3,2.5,0.8,3c0.4,0.4,1,0.6,1.7,0.6c0.8,0,1.4-0.3,1.9-0.8v3.6h1.4v-10h-1.4V159z M68,163.4c-0.2,0.5-0.6,0.7-1.2,0.7
	c-0.6,0-1-0.2-1.2-0.7c-0.2-0.4-0.3-0.9-0.3-1.7s0.1-1.3,0.3-1.7c0.2-0.5,0.6-0.7,1.2-0.7c0.6,0,1,0.2,1.2,0.7
	c0.2,0.4,0.3,0.9,0.3,1.7S68.1,163.1,68,163.4 M80.3,141.5v7.1h1.4v-4.3c0-0.5,0.1-0.9,0.4-1.2c0.3-0.3,0.6-0.4,1-0.4
	c0.4,0,0.8,0.2,1.1,0.5l1.1-1.1c-0.4-0.4-1-0.7-1.7-0.7c-0.8,0-1.5,0.3-1.9,0.9v-0.8H80.3z M89.7,163.3v-7.9h-1.4v8
	c0,0.6,0.2,1,0.5,1.4c0.3,0.4,0.8,0.6,1.5,0.6h0.9v-1.2h-0.6C89.9,164.1,89.7,163.9,89.7,163.3 M76.5,162.6c0,0.5-0.1,0.9-0.4,1.2
	c-0.3,0.3-0.6,0.4-1.1,0.4c-0.4,0-0.8-0.1-1-0.4c-0.3-0.3-0.4-0.7-0.4-1.2v-4.3h-1.4v4.5c0,0.9,0.2,1.5,0.7,2c0.4,0.4,1,0.6,1.7,0.6
	c0.8,0,1.4-0.3,1.9-0.8v0.7h1.4v-7.1h-1.4V162.6z M117.1,146.5v-7.9h-1.4v8c0,0.6,0.2,1,0.5,1.4c0.3,0.4,0.8,0.6,1.5,0.6h0.9v-1.2
	h-0.6C117.3,147.3,117.1,147.1,117.1,146.5 M177.1,162.6c0,0.5-0.1,0.9-0.4,1.2c-0.3,0.3-0.6,0.4-1.1,0.4c-0.4,0-0.8-0.1-1-0.4
	c-0.3-0.3-0.4-0.7-0.4-1.2v-4.3h-1.4v4.5c0,0.9,0.2,1.5,0.7,2c0.4,0.4,1,0.6,1.7,0.6c0.8,0,1.4-0.3,1.9-0.8v0.7h1.4v-7.1h-1.4V162.6
	z M171.2,141.5c-0.8,0-1.5,0.3-1.9,0.8v-0.8h-1.4v7h1.4v-4.3c0-0.5,0.1-0.9,0.4-1.1c0.3-0.3,0.6-0.4,1-0.4c0.4,0,0.8,0.2,1.1,0.5
	l1.1-1.1C172.5,141.7,171.9,141.5,171.2,141.5 M180.9,147.4h-0.6c-0.5,0-0.8-0.3-0.8-0.8v-7.8h-1.4v7.9c0,0.6,0.2,1,0.5,1.4
	c0.3,0.4,0.8,0.6,1.5,0.6h0.9V147.4z M159.8,165.3h1.5v-4.2h4.1v-1.4h-4.1v-3h4.9v-1.4h-6.4V165.3z M163,148.6
	c0.6,0,1.1-0.1,1.5-0.3c0.4-0.2,0.8-0.4,1.1-0.8l-0.9-0.8c-0.5,0.5-1.1,0.7-1.7,0.7c-0.6,0-1-0.2-1.3-0.5c-0.3-0.4-0.5-0.8-0.5-1.4
	h4.6v-0.6c0-1-0.3-1.8-0.8-2.4c-0.6-0.6-1.3-0.9-2.2-0.9c-0.9,0-1.7,0.3-2.2,1c-0.5,0.6-0.8,1.5-0.8,2.6
	C159.8,147.4,160.8,148.6,163,148.6 M161.4,143.5c0.3-0.6,0.7-0.9,1.4-0.9c0.7,0,1.1,0.3,1.4,0.9c0.1,0.3,0.2,0.6,0.2,1h-3.2
	C161.2,144.1,161.3,143.8,161.4,143.5 M183.3,163.2l-1.7-5h-1.5l2.6,7.1h1.2l2.6-7.1H185L183.3,163.2z M155.3,141.5
	c-0.8,0-1.4,0.3-1.9,0.8v-0.7h-1.4v9.9h1.4v-3.6c0.5,0.5,1.1,0.8,1.9,0.8c0.7,0,1.3-0.2,1.7-0.6c0.5-0.5,0.8-1.5,0.8-3
	c0-1.4-0.3-2.4-0.8-3C156.7,141.7,156.1,141.5,155.3,141.5 M156.2,146.7c-0.2,0.5-0.6,0.7-1.2,0.7c-0.6,0-1-0.2-1.2-0.7
	c-0.2-0.4-0.3-0.9-0.3-1.6c0-0.7,0.1-1.3,0.3-1.6c0.2-0.5,0.6-0.7,1.2-0.7c0.6,0,1,0.2,1.2,0.7c0.2,0.4,0.3,0.9,0.3,1.6
	C156.5,145.8,156.4,146.3,156.2,146.7 M169.5,163.3v-7.9h-1.4v8c0,0.6,0.2,1,0.5,1.4c0.3,0.4,0.8,0.6,1.5,0.6h0.9v-1.2h-0.6
	C169.8,164.1,169.5,163.9,169.5,163.3 M194.4,158.2c-0.6,0-1.1,0.1-1.5,0.2c-0.4,0.2-0.8,0.4-1.1,0.8l0.9,0.9
	c0.4-0.5,0.9-0.7,1.6-0.7c1,0,1.6,0.4,1.6,1.3v0.5h-1.9c-0.8,0-1.4,0.2-1.8,0.6c-0.4,0.4-0.6,0.9-0.6,1.5c0,0.6,0.2,1.1,0.6,1.5
	c0.4,0.4,1,0.6,1.9,0.6c0.8,0,1.4-0.2,1.9-0.7v0.6h1.4v-4.7C197.4,159,196.4,158.2,194.4,158.2 M195.9,162.8c0,0.5-0.1,0.9-0.3,1.1
	c-0.3,0.3-0.7,0.4-1.3,0.4c-0.9,0-1.3-0.3-1.3-1c0-0.7,0.4-1,1.3-1h1.7V162.8z M201.3,163.3v-7.9h-1.4v8c0,0.6,0.2,1,0.5,1.4
	c0.3,0.4,0.8,0.6,1.5,0.6h0.9v-1.2h-0.6C201.5,164.1,201.3,163.9,201.3,163.3 M188.2,148.6v-4.7c0-1.6-1-2.4-2.9-2.4
	c-0.6,0-1.1,0.1-1.5,0.2c-0.4,0.2-0.8,0.4-1.1,0.8l0.9,0.9c0.4-0.5,0.9-0.7,1.6-0.7c1,0,1.6,0.4,1.6,1.3v0.5h-1.9
	c-0.8,0-1.4,0.2-1.8,0.6c-0.4,0.4-0.6,0.9-0.6,1.5c0,0.6,0.2,1.1,0.6,1.5c0.4,0.4,1,0.6,1.9,0.6c0.8,0,1.4-0.2,1.9-0.7v0.6H188.2z
	 M186.5,147.1c-0.3,0.3-0.7,0.4-1.3,0.4c-0.9,0-1.3-0.3-1.3-1c0-0.7,0.4-1,1.3-1h1.7v0.6C186.8,146.5,186.7,146.9,186.5,147.1
	 M207.2,158.2c-0.9,0-1.7,0.3-2.2,1c-0.5,0.6-0.8,1.5-0.8,2.7c0,2.4,1.1,3.6,3.2,3.6c0.6,0,1.1-0.1,1.5-0.3c0.4-0.2,0.8-0.4,1.1-0.8
	l-0.9-0.9c-0.5,0.5-1.1,0.7-1.7,0.7c-0.6,0-1-0.2-1.3-0.5c-0.3-0.4-0.5-0.8-0.5-1.5h4.6v-0.6c0-1-0.3-1.8-0.8-2.5
	C208.9,158.5,208.2,158.2,207.2,158.2 M205.7,161.2c0-0.4,0.1-0.7,0.2-1c0.2-0.6,0.7-0.9,1.4-0.9c0.7,0,1.1,0.3,1.4,0.9
	c0.1,0.3,0.2,0.6,0.2,1H205.7z M188.1,165.3h1.4v-7.1h-1.4V165.3z M188.8,155c-0.3,0-0.5,0.1-0.7,0.3c-0.2,0.2-0.3,0.4-0.3,0.7
	s0.1,0.5,0.3,0.7c0.2,0.2,0.4,0.3,0.7,0.3c0.3,0,0.5-0.1,0.6-0.3c0.2-0.2,0.3-0.4,0.3-0.7s-0.1-0.5-0.3-0.7
	C189.3,155.1,189.1,155,188.8,155 M135.5,141.4c-0.8,0-1.4,0.3-1.9,0.8v-0.7h-1.4v7.1h1.4v-4.3c0-0.5,0.1-0.9,0.4-1.2
	c0.3-0.3,0.6-0.4,1-0.4c0.4,0,0.8,0.1,1,0.4c0.3,0.3,0.4,0.7,0.4,1.2v4.3h1.4V144c0-0.9-0.2-1.5-0.7-2
	C136.8,141.6,136.2,141.4,135.5,141.4 M121.1,140.1c0.3,0,0.5-0.1,0.7-0.3c0.2-0.2,0.3-0.4,0.3-0.6c0-0.3-0.1-0.5-0.3-0.7
	c-0.2-0.2-0.4-0.3-0.7-0.3s-0.5,0.1-0.7,0.3c-0.2,0.2-0.3,0.4-0.3,0.7c0,0.3,0.1,0.5,0.3,0.6C120.6,140,120.9,140.1,121.1,140.1
	 M120.4,148.6h1.4v-7.1h-1.4V148.6z M120.6,159.5h3.3l-3.5,4.7v1.1h5.3v-1.3h-3.6l3.6-4.7v-1.1h-5.1V159.5z M127.8,165.3h1.4v-7.1
	h-1.4V165.3z M113.2,148.6v-4.7c0-1.6-1-2.4-2.9-2.4c-0.6,0-1.1,0.1-1.5,0.2c-0.4,0.2-0.8,0.4-1.1,0.8l0.9,0.9
	c0.4-0.5,0.9-0.7,1.6-0.7c1,0,1.6,0.4,1.6,1.3v0.5h-1.9c-0.8,0-1.4,0.2-1.8,0.6c-0.4,0.4-0.6,0.9-0.6,1.5c0,0.6,0.2,1.1,0.6,1.5
	c0.4,0.4,1,0.6,1.9,0.6c0.8,0,1.4-0.2,1.9-0.7v0.6H113.2z M111.4,147c-0.3,0.3-0.7,0.4-1.3,0.4c-0.9,0-1.3-0.3-1.3-1
	c0-0.7,0.4-1,1.3-1h1.7v0.6C111.7,146.5,111.6,146.9,111.4,147 M115.4,158.2c-0.6,0-1.1,0.1-1.5,0.2c-0.4,0.2-0.8,0.4-1.1,0.8
	l0.9,0.9c0.4-0.5,0.9-0.7,1.6-0.7c1,0,1.6,0.4,1.6,1.3v0.5h-1.9c-0.8,0-1.4,0.2-1.8,0.6c-0.4,0.4-0.6,0.9-0.6,1.5
	c0,0.6,0.2,1.1,0.6,1.5c0.4,0.4,1,0.6,1.9,0.6c0.8,0,1.4-0.2,1.9-0.7v0.6h1.4v-4.7C118.4,159,117.4,158.2,115.4,158.2 M116.9,162.8
	c0,0.5-0.1,0.9-0.3,1.1c-0.3,0.3-0.7,0.4-1.3,0.4c-0.9,0-1.3-0.3-1.3-1c0-0.7,0.4-1,1.3-1h1.7V162.8z M134.5,158.2
	c-0.9,0-1.6,0.3-2.1,0.9c-0.6,0.6-0.8,1.5-0.8,2.8c0,1.3,0.3,2.2,0.8,2.8c0.5,0.6,1.3,0.9,2.1,0.9c0.9,0,1.6-0.3,2.1-0.9
	c0.6-0.6,0.8-1.5,0.8-2.8c0-1.3-0.3-2.2-0.8-2.8C136.1,158.5,135.4,158.2,134.5,158.2 M135.5,163.7c-0.3,0.3-0.6,0.4-1,0.4
	c-0.4,0-0.8-0.1-1-0.4c-0.3-0.3-0.5-1-0.5-1.9c0-1,0.2-1.6,0.5-1.9c0.3-0.3,0.6-0.4,1-0.4c0.4,0,0.8,0.1,1,0.4
	c0.3,0.3,0.5,1,0.5,1.9C136,162.8,135.8,163.4,135.5,163.7 M143,158.2c-0.8,0-1.4,0.3-1.9,0.8v-0.7h-1.4v7.1h1.4V161
	c0-0.5,0.1-0.9,0.4-1.2c0.3-0.3,0.6-0.4,1-0.4c0.4,0,0.8,0.1,1,0.4c0.3,0.3,0.4,0.7,0.4,1.2v4.3h1.4v-4.5c0-0.9-0.2-1.5-0.7-2
	C144.3,158.4,143.7,158.2,143,158.2 M108.8,159.4c0.5,0,0.9,0.2,1.4,0.7l1-1c-0.6-0.7-1.4-1-2.3-1c-0.9,0-1.6,0.3-2.2,0.8
	c-0.7,0.6-1,1.6-1,2.8c0,1.2,0.3,2.2,1,2.8c0.6,0.6,1.3,0.8,2.2,0.8c0.9,0,1.7-0.3,2.3-1l-1-0.9c-0.4,0.4-0.9,0.7-1.4,0.7
	c-0.6,0-1-0.2-1.3-0.6c-0.3-0.4-0.4-0.9-0.4-1.7c0-0.8,0.1-1.4,0.4-1.7C107.8,159.7,108.2,159.4,108.8,159.4 M143.1,141.4
	c-0.9,0-1.6,0.3-2.1,0.9c-0.6,0.6-0.8,1.5-0.8,2.8c0,1.3,0.3,2.2,0.8,2.8c0.6,0.6,1.3,0.9,2.1,0.9c0.9,0,1.6-0.3,2.1-0.9
	c0.5-0.6,0.8-1.5,0.8-2.8c0-1.3-0.3-2.2-0.8-2.8C144.7,141.7,144,141.4,143.1,141.4 M144.2,146.9c-0.3,0.3-0.6,0.4-1.1,0.4
	c-0.4,0-0.8-0.1-1-0.4c-0.3-0.3-0.5-1-0.5-1.9c0-1,0.2-1.6,0.5-1.9c0.3-0.3,0.6-0.4,1-0.4c0.4,0,0.8,0.1,1.1,0.4
	c0.3,0.3,0.5,1,0.5,1.9C144.7,146,144.5,146.6,144.2,146.9 M128.5,155c-0.3,0-0.5,0.1-0.7,0.3c-0.2,0.2-0.3,0.4-0.3,0.7
	s0.1,0.5,0.3,0.7c0.2,0.2,0.4,0.3,0.7,0.3s0.5-0.1,0.7-0.3c0.2-0.2,0.3-0.4,0.3-0.7s-0.1-0.5-0.3-0.7C129,155.1,128.8,155,128.5,155
	 M126.8,141.4c-0.6,0-1.1,0.1-1.5,0.2c-0.4,0.2-0.8,0.4-1.1,0.8l0.9,0.9c0.4-0.5,0.9-0.7,1.6-0.7c1,0,1.6,0.4,1.6,1.3v0.5h-1.9
	c-0.8,0-1.4,0.2-1.8,0.6c-0.4,0.4-0.6,0.9-0.6,1.5c0,0.6,0.2,1.1,0.6,1.5c0.4,0.4,1,0.6,1.9,0.6c0.8,0,1.4-0.2,1.9-0.7v0.6h1.4v-4.7
	C129.7,142.2,128.7,141.4,126.8,141.4 M128.2,146c0,0.5-0.1,0.9-0.3,1c-0.3,0.3-0.7,0.4-1.3,0.4c-0.9,0-1.3-0.3-1.3-1
	c0-0.7,0.4-1,1.3-1h1.7V146z M150.7,158.2c-0.9,0-1.7,0.3-2.2,1c-0.5,0.6-0.8,1.5-0.8,2.7c0,2.4,1.1,3.6,3.2,3.6
	c0.6,0,1.1-0.1,1.5-0.3c0.4-0.2,0.8-0.4,1.1-0.8l-0.9-0.9c-0.5,0.5-1.1,0.7-1.7,0.7c-0.6,0-1-0.2-1.3-0.5c-0.3-0.4-0.5-0.8-0.5-1.5
	h4.6v-0.6c0-1-0.3-1.8-0.8-2.5C152.3,158.5,151.6,158.2,150.7,158.2 M149.1,161.2c0-0.4,0.1-0.7,0.2-1c0.3-0.6,0.7-0.9,1.4-0.9
	c0.7,0,1.1,0.3,1.4,0.9c0.1,0.3,0.2,0.6,0.2,1H149.1z"/>
<g>
	<path class="st1" d="M174.5,30.9c7.5,0.6,14.6,2.6,21.2,6c5.6,2.9,10.5,6.7,14.7,11.2c0.7-2.6,1.1-5.4,1.1-8.2
		c0-2.8-0.4-5.6-1.1-8.2c-7.6-4.5-17.2-7.2-27.6-7.2c-11.7,0-27,5.5-35,11.1c5.7-1.9,16.2-4.9,22.3-4.9
		C171.5,30.7,173,30.8,174.5,30.9"/>
	<path class="st2" d="M174.1,35c-9.7-0.8-19,1.2-26.9,5.2c0,2.4,0.3,4.7,0.8,6.9c3.4-1.3,7.1-1.9,11-1.9c15.2,0,28,10.6,31.2,24.8
		c8.3-3,14.9-9.3,18.4-17.4C200.6,42.9,188.3,36.2,174.1,35"/>
	<path class="st3" d="M181.5,60.8c-5.9-6.8-14.6-11.1-24.3-11.1c-1,0-2,0-3,0.1c-1.8,0.2-3.5,0.5-5.2,0.9c0.1,0.1,0.1,0.3,0.2,0.4
		c4.5,12.2,16.3,20.9,30,20.9c2.4,0,4.7-0.3,7-0.8c0.4-0.1,0.8-0.2,1.2-0.3C186.1,67.2,184.1,63.7,181.5,60.8"/>
	<polygon class="st4" points="177,65.9 177.2,65.4 172,62.8 178.8,60.3 178.6,59.8 171.3,62.5 166.5,60 173.2,57.5 173,57 
		165.8,59.7 160.9,57.3 167.6,54.7 167.4,54.2 160.2,56.9 156.2,54.9 155.9,55.4 159.9,57.4 162.1,64.9 162.7,64.7 160.6,57.7 
		165.5,60.2 167.7,67.7 168.2,67.5 166.1,60.5 171,62.9 173.2,70.4 173.8,70.3 171.7,63.3 	"/>
</g>
<rect class="st5" width="260.8" height="192.8"/>
</svg>
